<?xml version="1.0" encoding="utf-8"?>
<!-- Generator: Adobe Illustrator 17.0.2, SVG Export Plug-In . SVG Version: 6.00 Build 0)  -->
<!DOCTYPE svg PUBLIC "-//W3C//DTD SVG 1.1//EN" "http://www.w3.org/Graphics/SVG/1.1/DTD/svg11.dtd">
<svg version="1.1" id="Layer_1" xmlns="http://www.w3.org/2000/svg" xmlns:xlink="http://www.w3.org/1999/xlink" x="0px" y="0px"
	 width="200px" height="200px" viewBox="0 0 200 200" enable-background="new 0 0 200 200" xml:space="preserve">
<g>
	<path fill="#E63C2F" d="M119.693,78.731c-1.839,0.146-3.64,0.326-5.43,0.52v14.765c0,3.519-3.006,7.306-9.606,7.306
		c-6.598,0-9.604-3.787-9.604-7.306V82.278c-9.688,2.08-18.265,4.849-25.344,8.155c-2.619,1.222-5.041,2.516-7.229,3.882v48.644
		l79.076,19.291v-49.371L119.693,78.731z M134.325,153.07L69.71,137.299v-14.554l64.615,16.054
		C134.325,138.799,134.325,153.07,134.325,153.07z M134.325,131.349l-64.579-16.053l-0.038-14.555l64.615,16.076v14.531H134.325z"/>
	<path fill="#E63C2F" d="M104.657,95.474c2.077,0,3.76-0.653,3.76-1.459V59.203c0-0.516-1.682-0.935-3.76-0.935
		c-2.075,0-3.757,0.419-3.757,0.935v34.811C100.9,94.821,102.582,95.474,104.657,95.474z"/>
	<path fill="#E63C2F" d="M109.251,47.968c0,2.538-2.058,4.593-4.593,4.593c-2.536,0-4.594-2.056-4.594-4.593
		c0-2.537,2.056-10.717,4.594-10.717C107.195,37.25,109.251,45.43,109.251,47.968z"/>
</g>
</svg>
