<?xml version="1.0" encoding="utf-8"?>
<!-- Generator: Adobe Illustrator 17.0.2, SVG Export Plug-In . SVG Version: 6.00 Build 0)  -->
<!DOCTYPE svg PUBLIC "-//W3C//DTD SVG 1.1//EN" "http://www.w3.org/Graphics/SVG/1.1/DTD/svg11.dtd">
<svg version="1.1" id="Layer_1" xmlns="http://www.w3.org/2000/svg" xmlns:xlink="http://www.w3.org/1999/xlink" x="0px" y="0px"
	 width="200px" height="200px" viewBox="0 0 200 200" enable-background="new 0 0 200 200" xml:space="preserve">
<g>
	<path fill="#E63C2F" d="M75.8,48.19H39.597c-7.407,0-13.435,6.029-13.435,13.442v76.854c0,7.412,6.028,13.442,13.435,13.442
		h120.583c7.407,0,13.433-6.031,13.433-13.442V61.634c0-7.412-6.028-13.442-13.433-13.442h-36.201L75.8,48.19z M162.602,138.488
		c0,1.338-1.084,2.428-2.422,2.428H39.597c-1.334,0-2.421-1.09-2.421-2.428V61.634c0-1.34,1.087-2.428,2.421-2.428h120.583
		c1.337,0,2.422,1.089,2.422,2.428V138.488z"/>
	<polygon fill="#E63C2F" points="124.542,92.03 107.919,92.03 107.919,75.408 91.855,75.408 91.855,92.03 75.235,92.03 
		75.235,108.098 91.855,108.098 91.855,124.715 107.919,124.715 107.919,108.098 124.542,108.098 	"/>
</g>
</svg>
