<?xml version="1.0" encoding="utf-8"?>
<!-- Generator: Adobe Illustrator 17.0.2, SVG Export Plug-In . SVG Version: 6.00 Build 0)  -->
<!DOCTYPE svg PUBLIC "-//W3C//DTD SVG 1.1//EN" "http://www.w3.org/Graphics/SVG/1.1/DTD/svg11.dtd">
<svg version="1.1" id="Layer_1" xmlns="http://www.w3.org/2000/svg" xmlns:xlink="http://www.w3.org/1999/xlink" x="0px" y="0px"
	 width="200px" height="200px" viewBox="0 0 200 200" enable-background="new 0 0 200 200" xml:space="preserve">
<path fill="#E63C2F" d="M129.439,124.153c0.004-6.052-2.884-13.904-5.603-18.219c-0.493-0.784-1.045-1.632-1.626-2.527
	c-3.829-5.891-9.075-13.96-8.74-20.337c0.06-1.13,0.023-2.218-0.015-3.373c-0.025-0.784-0.051-1.588-0.051-2.445
	c0.003-6.304-5.724-11.444-12.837-11.609l-0.444-3.524c1.712,0.065,4.911-0.294,7.509-3.358c3.526-4.167,1.738-9.142,1.738-9.142
	s-4.422-1.859-8.726,3.224c-0.606,0.716-1.069,1.415-1.425,2.088l-0.251-2l-5.602,0.702c0,0,3.541,9.161,4.697,12.15
	c-6.245,0.91-11.024,5.695-11.028,11.451c0,0.856-0.026,1.661-0.054,2.445c-0.039,1.153-0.077,2.243-0.021,3.37
	c0.325,6.377-4.928,14.437-8.763,20.321c-0.585,0.897-1.137,1.745-1.634,2.531c-2.725,4.312-5.623,12.159-5.626,18.212
	c-0.01,14.339,13.105,26.011,29.235,26.021C116.298,150.147,129.43,138.491,129.439,124.153z"/>
</svg>
